<svg id="_21-Target" data-name="21-Target" xmlns="http://www.w3.org/2000/svg" width="188.619" height="188.619" viewBox="0 0 188.619 188.619">
  <path id="Path_200" data-name="Path 200" d="M164.747,88.415A70.732,70.732,0,0,0,100.2,23.872V0H88.415V23.872A70.732,70.732,0,0,0,23.872,88.415H0V100.2H23.872a70.732,70.732,0,0,0,64.543,64.543v23.872H100.2V164.747A70.732,70.732,0,0,0,164.747,100.2h23.872V88.415ZM152.958,100.2A58.943,58.943,0,0,1,100.2,152.958V129.675H88.415v23.283A58.943,58.943,0,0,1,35.661,100.2H58.943V88.415H35.661A58.943,58.943,0,0,1,88.415,35.661V58.943H100.2V35.661a58.943,58.943,0,0,1,52.754,52.754H129.675V100.2Z" fill="#33d9b2"/>
  <circle id="Ellipse_12" data-name="Ellipse 12" cx="12" cy="12" r="12" transform="translate(82.309 82.309)" fill="#33d9b2"/>
</svg>
