<svg xmlns="http://www.w3.org/2000/svg" width="124.809" height="124.809" viewBox="0 0 124.809 124.809">
  <g id="Grad_Hat" data-name="Grad Hat" transform="translate(0 -4.362)">
    <g id="Hat" transform="translate(0 7.106)">
      <path id="Path_9" data-name="Path 9" d="M0,0H93.5V25.86L45.876,46.16,0,25.86Z" transform="translate(17.365 63.826)"/>
      <path id="Path_13" data-name="Path 13" d="M0,16.356,45.876,36.964,93.5,16.356v3.032l-47.626,20.3L0,19.389Z" transform="translate(17.365 68.901)" fill="#fc0"/>
      <path id="Path_14" data-name="Path 14" d="M0,16.356,45.876,36.964,93.5,16.356v3.032l-47.626,20.3L0,19.389Z" transform="translate(17.365 64.714)" fill="#fc0"/>
      <g id="Width">
        <path id="Path_11" data-name="Path 11" d="M0,0,61.387,28.308,87.218,89.289,26.067,63.627Z" transform="translate(0 60.325) rotate(-45)" fill="#fff"/>
        <path id="Path_12" data-name="Path 12" d="M0,0,61.387,28.308,87.218,89.289,26.067,63.627Z" transform="translate(0 60.325) rotate(-45)" fill="#fff"/>
        <path id="Path_8" data-name="Path 8" d="M0,0,61.387,28.308,87.218,89.289,26.067,63.627Z" transform="translate(0 58.929) rotate(-45)" fill="#81919c"/>
        <path id="Path_15" data-name="Path 15" d="M0,0,61.387,28.308,87.218,89.289,26.067,63.627Z" transform="translate(0 58.929) rotate(-45)"/>
      </g>
    </g>
    <g id="Tasell" transform="translate(60.202 63.287)">
      <line id="Line_3" data-name="Line 3" x2="25.379" y2="19.345" transform="translate(3.245 3.444)" fill="none" stroke="#fc0" stroke-linecap="round" stroke-width="1"/>
      <line id="Line_4" data-name="Line 4" y2="45.724" transform="translate(28.624 22.789)" fill="none" stroke="#fc0" stroke-linecap="round" stroke-width="1"/>
      <g id="Ellipse_1" data-name="Ellipse 1" transform="translate(0 0)" fill="#fc0" stroke="#fc0" stroke-width="1">
        <ellipse cx="2.937" cy="0.983" rx="2.937" ry="0.983" stroke="none"/>
        <ellipse cx="2.937" cy="0.983" rx="2.437" ry="0.483" fill="none"/>
      </g>
      <g id="Group_1" data-name="Group 1" transform="translate(23.679 65.923)">
        <g id="Path_10" data-name="Path 10" transform="translate(4.109 0.271) rotate(17)" fill="#fc0" stroke-linejoin="round">
          <path d="M 1.425592303276062 16.27408409118652 L 1.414528369903564 16.27313041687012 C 1.332070708274841 15.84623908996582 1.224873661994934 14.9168643951416 1.187107563018799 13.91339206695557 L 1.11396050453186 11.96993255615234 L 1.323827505111694 14.07943153381348 C 1.4126136302948 14.97190570831299 1.438253283500671 15.81065464019775 1.425592303276062 16.27408409118652 Z" stroke="none"/>
          <path d="M 0.2943663597106934 0.01700210571289063 C 0.3680025339126587 0.01700210571289063 0.4745824337005615 0.4925642013549805 0.5688374042510986 1.440001487731934 L 1.821367383003235 14.02993202209473 C 1.957174897193909 15.39503860473633 1.965623021125793 16.81145668029785 1.838479518890381 16.81145668029785 C 1.83798086643219 16.81145668029785 1.837490200996399 16.81143569946289 1.836987495422363 16.81139183044434 L 1.055787444114685 16.74406242370605 C 0.9270874261856079 16.73297119140625 0.7387673854827881 15.29533195495605 0.6874574422836304 13.93220138549805 L 0.2161374092102051 1.409602165222168 C 0.1811482906341553 0.4800252914428711 0.2217299938201904 0.01700210571289063 0.2943663597106934 0.01700210571289063 Z" stroke="none" fill="#fc0"/>
        </g>
        <g id="Path_19" data-name="Path 19" transform="translate(10.317 16.533) rotate(163)" fill="#fc0" stroke-linejoin="round">
          <path d="M 0.2890323996543884 4.783114910125732 L 0.3621794283390045 2.839657068252563 C 0.3999454975128174 1.83618438243866 0.5071501731872559 0.9068036079406738 0.5896103978157043 0.479913204908371 L 0.6006640195846558 0.4789606034755707 C 0.6133249998092651 0.9423894882202148 0.5876855254173279 1.781142950057983 0.4988994300365448 2.673617124557495 L 0.2890323996543884 4.783114910125732 Z" stroke="none"/>
          <path d="M -0.530561625957489 16.73604393005371 C -0.6031979322433472 16.73597145080566 -0.6437797546386719 16.27301788330078 -0.6087905764579773 15.34343719482422 L -0.1374705582857132 2.820847034454346 C -0.08616055548191071 1.457707047462463 0.1021594405174255 0.0200770664960146 0.2308694422245026 0.008977065794169903 L 1.012059450149536 -0.05834293365478516 C 1.012562155723572 -0.05838629230856895 1.013052940368652 -0.05840746685862541 1.013551473617554 -0.05840746685862541 C 1.140695095062256 -0.05840746685862541 1.132246851921082 1.358010411262512 0.9964394569396973 2.723117113113403 L -0.2560905516147614 15.31303691864014 C -0.3503454923629761 16.26047897338867 -0.4569253623485565 16.73611831665039 -0.530561625957489 16.73604393005371 Z" stroke="none" fill="#fc0"/>
        </g>
        <g id="Path_16" data-name="Path 16" transform="translate(4.188 -2.027)" fill="#fc0" stroke-linejoin="round">
          <path d="M 0.9710351228713989 18.59401512145996 C 0.9248569011688232 18.12419700622559 0.8907809853553772 17.24347305297852 0.9188051223754883 16.29897117614746 L 0.9710351228713989 14.5383186340332 L 1.02326512336731 16.29897117614746 C 1.051289200782776 17.24347305297852 1.017213344573975 18.12419700622559 0.9710351228713989 18.59401512145996 Z" stroke="none"/>
          <path d="M 0.9710351228713989 2.02708625793457 C 1.042677640914917 2.02708625793457 1.114320039749146 2.506181716918945 1.142745137214661 3.464372634887695 L 1.523045063018799 16.28414154052734 C 1.5644451379776 17.67963218688965 1.476655125617981 19.13951110839844 1.351345062255859 19.13951110839844 L 0.5907250642776489 19.13951110839844 C 0.4654151201248169 19.13951110839844 0.3776251077651978 17.67963218688965 0.4190250635147095 16.28414154052734 L 0.7993251085281372 3.464372634887695 C 0.8277500867843628 2.506181716918945 0.8993926048278809 2.02708625793457 0.9710351228713989 2.02708625793457 Z" stroke="none" fill="#fc0"/>
        </g>
        <g id="Path_17" data-name="Path 17" transform="matrix(0.985, -0.174, 0.174, 0.985, 4.64, 0.285)" fill="#fc0" stroke-linejoin="round">
          <path d="M 0.05420035496354103 16.44969940185547 C 0.02807330712676048 15.98300933837891 0.03064370714128017 15.11757946014404 0.0967484712600708 14.1927604675293 L 0.2329531610012054 12.28713226318359 L 0.2126084715127945 14.09170055389404 C 0.2014264017343521 15.08398151397705 0.1232808530330658 16.00436782836914 0.05420035496354103 16.44969940185547 Z" stroke="none"/>
          <path d="M 0.742470920085907 -0.0264739990234375 C 0.8143445253372192 -0.0264739990234375 0.866490364074707 0.4452362060546875 0.8558284640312195 1.391110420227051 L 0.7125784754753113 14.09734058380127 C 0.6969884634017944 15.48046016693115 0.5483284592628479 16.93449974060059 0.4218184649944305 16.9412899017334 L -0.3460615277290344 16.98246955871582 C -0.3463549613952637 16.98248672485352 -0.3466551303863525 16.98249435424805 -0.3469474911689758 16.98249435424805 C -0.4727107882499695 16.98249435424805 -0.5009315013885498 15.54150199890137 -0.4019815325737 14.1571102142334 L 0.5091384649276733 1.409700393676758 C 0.577512800693512 0.4530868530273438 0.6700159311294556 -0.0264739990234375 0.742470920085907 -0.0264739990234375 Z" stroke="none" fill="#fc0"/>
        </g>
        <g id="Path_18" data-name="Path 18" transform="matrix(0.985, 0.174, -0.174, 0.985, 4.563, 0.047)" fill="#fc0" stroke-linejoin="round">
          <path d="M 1.08394181728363 16.49026870727539 C 1.014865279197693 16.04490089416504 0.93672114610672 15.12450981140137 0.9255399703979492 14.13230609893799 L 0.9051953554153442 12.32774639129639 L 1.041399955749512 14.23337554931641 C 1.107504725456238 15.15816497802734 1.110071659088135 16.02356147766113 1.08394181728363 16.49026870727539 Z" stroke="none"/>
          <path d="M 0.3956774473190308 0.01412391662597656 C 0.4681364297866821 0.01412391662597656 0.5606273412704468 0.4935722351074219 0.6290099620819092 1.450305938720703 L 1.540129899978638 14.19772624969482 C 1.639073848724365 15.58202266693115 1.610840916633606 17.02309989929199 1.485097289085388 17.02309989929199 C 1.484797239303589 17.02309989929199 1.484511137008667 17.02309226989746 1.484210014343262 17.02307510375977 L 0.7163299322128296 16.98189544677734 C 0.5898199081420898 16.97510528564453 0.4411599636077881 15.5210657119751 0.425570011138916 14.13794612884521 L 0.2823199033737183 1.431715965270996 C 0.2716593742370605 0.4859523773193359 0.3238174915313721 0.01412391662597656 0.3956774473190308 0.01412391662597656 Z" stroke="none" fill="#fc0"/>
        </g>
      </g>
      <g id="Ellipse_2" data-name="Ellipse 2" transform="translate(24.962 62.888)" fill="#fc0" stroke="#fc0" stroke-width="1">
        <ellipse cx="3.671" cy="4.913" rx="3.671" ry="4.913" stroke="none"/>
        <ellipse cx="3.671" cy="4.913" rx="3.171" ry="4.413" fill="none"/>
      </g>
    </g>
  </g>
</svg>
