<svg xmlns="http://www.w3.org/2000/svg" width="456.55" height="586.083" viewBox="0 0 456.55 586.083">
  <g id="iconfinder_website-builder_4417110" transform="translate(-6.275 -0.963)">
    <g id="Group_21" data-name="Group 21" transform="translate(225.407 170.677)">
      <path id="Path_22" data-name="Path 22" d="M143.926,64.49v6.9c-.017,4.74-3.114,9.446-9.326,13.056-12.475,7.256-32.8,7.256-45.364,0l-51.9-29.963c-6.331-3.662-9.48-8.436-9.463-13.228V34.339c0,4.791,3.149,9.583,9.463,13.228L89.253,77.53c12.56,7.255,32.872,7.255,45.364,0C140.811,73.937,143.926,69.214,143.926,64.49Z" transform="translate(16.278 202.844)" fill="#1b2a4f"/>
      <g id="Group_9" data-name="Group 9" transform="translate(44.156 218.697)">
        <path id="Path_23" data-name="Path 23" d="M134.46,68.229c12.564,7.254,12.63,19.025.148,26.279s-32.8,7.254-45.368,0L37.333,64.539c-12.564-7.254-12.62-19.018-.137-26.272s32.792-7.26,45.357-.006Z" transform="translate(-27.872 -32.823)" fill="#384e85"/>
      </g>
      <g id="Group_12" data-name="Group 12" transform="translate(77.588 184.676)">
        <g id="Group_10" data-name="Group 10" transform="translate(52.702 24.403)">
          <path id="Path_24" data-name="Path 24" d="M35.052,38.058l10.366-6.024L45.3,84.224,34.937,90.248Z" transform="translate(-34.937 -32.034)" fill="#1b2a4f"/>
        </g>
        <g id="Group_11" data-name="Group 11">
          <path id="Path_25" data-name="Path 25" d="M83.431,60.459l-.115,52.19-52.7-30.428.115-52.189Z" transform="translate(-30.614 -30.032)" fill="#2e4277"/>
        </g>
      </g>
      <g id="Group_20" data-name="Group 20" transform="translate(0)">
        <g id="Group_19" data-name="Group 19">
          <g id="Group_18" data-name="Group 18">
            <g id="Group_17" data-name="Group 17">
              <g id="Group_16" data-name="Group 16">
                <g id="Group_13" data-name="Group 13" transform="translate(0 140.311)">
                  <path id="Path_26" data-name="Path 26" d="M252.247,158.005l-.038,19.206c-.017,6.041-4.263,8.461-9.52,5.425L33.708,61.982C28.451,58.947,24.233,51.641,24.25,45.6l.038-19.206Z" transform="translate(-24.25 -26.393)" fill="#6bb5fb"/>
                </g>
                <g id="Group_15" data-name="Group 15" transform="translate(0.038)">
                  <path id="Path_27" data-name="Path 27" d="M243.153,136.84c5.258,3.035,9.475,10.39,9.458,16.383l-.4,133.584L24.253,155.194l.4-133.585c.017-5.992,4.263-8.461,9.52-5.425Z" transform="translate(-24.253 -14.884)" fill="#1b2a4f"/>
                  <g id="Group_14" data-name="Group 14" transform="translate(6.527 7.105)">
                    <path id="Path_28" data-name="Path 28" d="M240.089,139.52l-.326,137.029L24.789,152.432,25.18,15.467Z" transform="translate(-24.789 -15.467)" fill="#fff"/>
                  </g>
                </g>
              </g>
            </g>
          </g>
        </g>
      </g>
    </g>
    <g id="Group_93" data-name="Group 93" transform="translate(140.383 406.716)">
      <g id="Group_28" data-name="Group 28">
        <g id="Group_27" data-name="Group 27">
          <g id="Group_22" data-name="Group 22" transform="translate(60.167 3.743)">
            <path id="Path_29" data-name="Path 29" d="M250.835,163.959a11.773,11.773,0,0,1-5.313,9.209l-6.455,3.7L22.211,50.846l6.454-3.7a11.61,11.61,0,0,0,5.313-9.21,3.7,3.7,0,0,0-1.535-3.385L249.3,160.573A3.7,3.7,0,0,1,250.835,163.959Z" transform="translate(-22.211 -34.552)" fill="#6bb5fb"/>
          </g>
          <g id="Group_23" data-name="Group 23" transform="translate(60.179 20.055)">
            <path id="Path_30" data-name="Path 30" d="M239.063,164.921,22.221,38.905l-.009-3.015L239.056,161.906Z" transform="translate(-22.212 -35.891)" fill="#4466fb"/>
          </g>
          <g id="Group_24" data-name="Group 24" transform="translate(0.016 39.541)">
            <path id="Path_31" data-name="Path 31" d="M234.129,166.511,17.286,40.5l-.009-3.006L234.121,163.5Z" transform="translate(-17.277 -37.489)" fill="#4466fb"/>
          </g>
          <g id="Group_25" data-name="Group 25">
            <path id="Path_32" data-name="Path 32" d="M306.381,160.821c-1.456-.866-3.463-.748-5.667.551l-66.581,38.416L17.276,73.769,83.856,35.352c2.2-1.3,4.211-1.417,5.667-.551Z" transform="translate(-17.276 -34.245)" fill="#6bb5fb"/>
          </g>
          <g id="Group_26" data-name="Group 26" transform="translate(216.859 126.021)">
            <path id="Path_33" data-name="Path 33" d="M101.642,45.671c4.384-2.531,7.955-.5,7.97,4.533s-3.534,11.183-7.918,13.714l-6.459,3.729-.009-3.016,6.459-3.729A11.7,11.7,0,0,0,107,51.715c-.01-3.368-2.406-4.733-5.345-3.037L35.073,87.125l-.009-3.007Z" transform="translate(-35.064 -44.583)" fill="#3955d1"/>
          </g>
        </g>
      </g>
      <g id="Group_92" data-name="Group 92" transform="translate(13.037 7.767)">
        <g id="Group_29" data-name="Group 29" transform="translate(48.605)">
          <path id="Path_34" data-name="Path 34" d="M37.394,40.355,31.811,43.6l-9.479-5.473,5.583-3.245Z" transform="translate(-22.332 -34.883)" fill="#2e4277"/>
        </g>
        <g id="Group_30" data-name="Group 30" transform="translate(61.372 7.372)">
          <path id="Path_35" data-name="Path 35" d="M38.441,40.96l-5.583,3.245-9.479-5.474,5.583-3.244Z" transform="translate(-23.379 -35.487)" fill="#2e4277"/>
        </g>
        <g id="Group_31" data-name="Group 31" transform="translate(74.14 14.744)">
          <path id="Path_36" data-name="Path 36" d="M39.489,41.563l-5.583,3.245-9.479-5.473,5.584-3.244Z" transform="translate(-24.427 -36.092)" fill="#2e4277"/>
        </g>
        <g id="Group_32" data-name="Group 32" transform="translate(86.856 22.085)">
          <path id="Path_37" data-name="Path 37" d="M40.583,42.2,35,45.441l-9.53-5.5,5.584-3.244Z" transform="translate(-25.47 -36.694)" fill="#2e4277"/>
        </g>
        <g id="Group_33" data-name="Group 33" transform="translate(36.46 4.711)">
          <path id="Path_38" data-name="Path 38" d="M45.2,43.493,35.58,49.085,21.336,40.861l9.622-5.592Z" transform="translate(-21.336 -35.269)" fill="#2e4277"/>
        </g>
        <g id="Group_34" data-name="Group 34" transform="translate(53.941 14.804)">
          <path id="Path_39" data-name="Path 39" d="M41.924,41.6,32.3,47.191l-9.531-5.5L32.393,36.1Z" transform="translate(-22.77 -36.097)" fill="#2e4277"/>
        </g>
        <g id="Group_35" data-name="Group 35" transform="translate(66.709 22.174)">
          <path id="Path_40" data-name="Path 40" d="M42.97,42.2,33.347,47.8l-9.53-5.5L33.44,36.7Z" transform="translate(-23.817 -36.701)" fill="#2e4277"/>
        </g>
        <g id="Group_36" data-name="Group 36" transform="translate(79.477 29.546)">
          <path id="Path_41" data-name="Path 41" d="M44.018,42.809,34.394,48.4l-9.53-5.5,9.622-5.592Z" transform="translate(-24.864 -37.306)" fill="#2e4277"/>
        </g>
        <g id="Group_37" data-name="Group 37" transform="translate(99.624 29.456)">
          <path id="Path_42" data-name="Path 42" d="M41.63,42.8l-5.584,3.244-9.53-5.5L32.1,37.3Z" transform="translate(-26.517 -37.299)" fill="#2e4277"/>
        </g>
        <g id="Group_38" data-name="Group 38" transform="translate(92.245 36.918)">
          <path id="Path_43" data-name="Path 43" d="M45.065,43.413,35.441,49l-9.53-5.5,9.622-5.592Z" transform="translate(-25.912 -37.911)" fill="#2e4277"/>
        </g>
        <g id="Group_39" data-name="Group 39" transform="translate(24.341 11.768)">
          <path id="Path_44" data-name="Path 44" d="M52.186,48.692l-9.6,5.576L20.342,41.425l9.6-5.577Z" transform="translate(-20.342 -35.848)" fill="#2e4277"/>
        </g>
        <g id="Group_40" data-name="Group 40" transform="translate(49.825 26.481)">
          <path id="Path_45" data-name="Path 45" d="M41.56,42.557l-9.6,5.577-9.531-5.5,9.6-5.577Z" transform="translate(-22.432 -37.055)" fill="#2e4277"/>
        </g>
        <g id="Group_41" data-name="Group 41" transform="translate(62.593 33.852)">
          <path id="Path_46" data-name="Path 46" d="M42.607,43.162l-9.6,5.577-9.531-5.5,9.6-5.577Z" transform="translate(-23.479 -37.659)" fill="#2e4277"/>
        </g>
        <g id="Group_42" data-name="Group 42" transform="translate(75.36 41.224)">
          <path id="Path_47" data-name="Path 47" d="M43.654,43.767l-9.6,5.577-9.531-5.5,9.6-5.577Z" transform="translate(-24.527 -38.264)" fill="#2e4277"/>
        </g>
        <g id="Group_43" data-name="Group 43" transform="translate(12.197 18.811)">
          <path id="Path_48" data-name="Path 48" d="M54.452,51.139l-9.624,5.592L19.346,42.018l9.622-5.592Z" transform="translate(-19.346 -36.425)" fill="#2e4277"/>
        </g>
        <g id="Group_44" data-name="Group 44" transform="translate(40.969 35.422)">
          <path id="Path_49" data-name="Path 49" d="M40.808,43.261l-9.624,5.592L21.706,43.38l9.624-5.592Z" transform="translate(-21.706 -37.788)" fill="#2e4277"/>
        </g>
        <g id="Group_45" data-name="Group 45" transform="translate(53.064 42.405)">
          <path id="Path_50" data-name="Path 50" d="M41.851,43.864l-9.624,5.592-9.53-5.5,9.622-5.592Z" transform="translate(-22.698 -38.361)" fill="#2e4277"/>
        </g>
        <g id="Group_46" data-name="Group 46" transform="translate(65.184 49.403)">
          <path id="Path_51" data-name="Path 51" d="M42.82,44.422,33.2,50.015l-9.5-5.488,9.622-5.592Z" transform="translate(-23.692 -38.935)" fill="#2e4277"/>
        </g>
        <g id="Group_47" data-name="Group 47" transform="translate(112.392 36.828)">
          <path id="Path_52" data-name="Path 52" d="M42.678,43.405,37.094,46.65l-9.53-5.5L33.148,37.9Z" transform="translate(-27.564 -37.903)" fill="#2e4277"/>
        </g>
        <g id="Group_48" data-name="Group 48" transform="translate(105.013 44.289)">
          <path id="Path_53" data-name="Path 53" d="M46.112,44.019l-9.624,5.592-9.53-5.5,9.622-5.592Z" transform="translate(-26.959 -38.515)" fill="#2e4277"/>
        </g>
        <g id="Group_49" data-name="Group 49" transform="translate(88.128 48.596)">
          <path id="Path_54" data-name="Path 54" d="M44.7,44.371l-9.6,5.577-9.531-5.5,9.6-5.577Z" transform="translate(-25.574 -38.869)" fill="#2e4277"/>
        </g>
        <g id="Group_50" data-name="Group 50" transform="translate(77.279 56.386)">
          <path id="Path_55" data-name="Path 55" d="M43.837,45.009,34.214,50.6l-9.53-5.5,9.622-5.592Z" transform="translate(-24.684 -39.508)" fill="#2e4277"/>
        </g>
        <g id="Group_51" data-name="Group 51" transform="translate(125.16 44.2)">
          <path id="Path_56" data-name="Path 56" d="M43.725,44.01l-5.582,3.245-9.531-5.5L34.2,38.508Z" transform="translate(-28.612 -38.508)" fill="#2e4277"/>
        </g>
        <g id="Group_52" data-name="Group 52" transform="translate(137.927 51.571)">
          <path id="Path_57" data-name="Path 57" d="M44.772,44.616,39.19,47.86l-9.531-5.5,5.584-3.245Z" transform="translate(-29.659 -39.113)" fill="#2e4277"/>
        </g>
        <g id="Group_53" data-name="Group 53" transform="translate(150.695 58.943)">
          <path id="Path_58" data-name="Path 58" d="M45.821,45.219l-5.583,3.245-9.531-5.5,5.584-3.244Z" transform="translate(-30.706 -39.717)" fill="#2e4277"/>
        </g>
        <g id="Group_54" data-name="Group 54" transform="translate(163.463 66.313)">
          <path id="Path_59" data-name="Path 59" d="M46.868,45.825,41.284,49.07l-9.531-5.5,5.583-3.245Z" transform="translate(-31.754 -40.322)" fill="#2e4277"/>
        </g>
        <g id="Group_55" data-name="Group 55" transform="translate(176.23 73.685)">
          <path id="Path_60" data-name="Path 60" d="M47.915,46.43l-5.584,3.244-9.531-5.5,5.583-3.245Z" transform="translate(-32.801 -40.927)" fill="#2e4277"/>
        </g>
        <g id="Group_56" data-name="Group 56" transform="translate(117.78 51.661)">
          <path id="Path_61" data-name="Path 61" d="M47.16,44.622l-9.624,5.593-9.53-5.5,9.622-5.592Z" transform="translate(-28.006 -39.12)" fill="#2e4277"/>
        </g>
        <g id="Group_57" data-name="Group 57" transform="translate(130.548 59.033)">
          <path id="Path_62" data-name="Path 62" d="M48.207,45.227l-9.622,5.592-9.531-5.5,9.622-5.592Z" transform="translate(-29.054 -39.725)" fill="#2e4277"/>
        </g>
        <g id="Group_58" data-name="Group 58" transform="translate(143.316 66.403)">
          <path id="Path_63" data-name="Path 63" d="M70.025,57.824,60.4,63.416,30.1,45.922l9.622-5.592Z" transform="translate(-30.101 -40.329)" fill="#2e4277"/>
        </g>
        <g id="Group_59" data-name="Group 59" transform="translate(100.896 55.967)">
          <path id="Path_64" data-name="Path 64" d="M45.749,44.976l-9.6,5.577-9.531-5.5,9.6-5.577Z" transform="translate(-26.621 -39.473)" fill="#2e4277"/>
        </g>
        <g id="Group_60" data-name="Group 60" transform="translate(113.663 63.339)">
          <path id="Path_65" data-name="Path 65" d="M46.8,45.58l-9.6,5.577-9.531-5.5,9.6-5.577Z" transform="translate(-27.669 -40.078)" fill="#2e4277"/>
        </g>
        <g id="Group_61" data-name="Group 61" transform="translate(126.432 70.711)">
          <path id="Path_66" data-name="Path 66" d="M47.844,46.185l-9.6,5.577-9.53-5.5,9.6-5.576Z" transform="translate(-28.716 -40.683)" fill="#2e4277"/>
        </g>
        <g id="Group_62" data-name="Group 62" transform="translate(139.2 78.081)">
          <path id="Path_67" data-name="Path 67" d="M61.659,54.161l-9.6,5.577-22.3-12.874,9.6-5.577Z" transform="translate(-29.763 -41.287)" fill="#2e4277"/>
        </g>
        <g id="Group_63" data-name="Group 63" transform="translate(127.055 85.124)">
          <path id="Path_68" data-name="Path 68" d="M47.92,47.368,38.3,52.96l-9.53-5.5,9.622-5.592Z" transform="translate(-28.767 -41.865)" fill="#2e4277"/>
        </g>
        <g id="Group_64" data-name="Group 64" transform="translate(204.278 89.879)">
          <path id="Path_69" data-name="Path 69" d="M50.216,47.758,44.632,51,35.1,45.5l5.584-3.245Z" transform="translate(-35.102 -42.255)" fill="#2e4277"/>
        </g>
        <g id="Group_65" data-name="Group 65" transform="translate(192.134 94.589)">
          <path id="Path_70" data-name="Path 70" d="M53.259,48.143l-9.622,5.592-9.531-5.5,9.624-5.592Z" transform="translate(-34.105 -42.641)" fill="#2e4277"/>
        </g>
        <g id="Group_66" data-name="Group 66" transform="translate(180.016 101.647)">
          <path id="Path_71" data-name="Path 71" d="M52.238,48.722l-9.6,5.577-9.53-5.5,9.6-5.577Z" transform="translate(-33.111 -43.22)" fill="#2e4277"/>
        </g>
        <g id="Group_67" data-name="Group 67" transform="translate(167.871 108.689)">
          <path id="Path_72" data-name="Path 72" d="M51.268,49.3l-9.624,5.592-9.53-5.5L41.738,43.8Z" transform="translate(-32.115 -43.798)" fill="#2e4277"/>
        </g>
        <g id="Group_68" data-name="Group 68" transform="translate(217.046 97.251)">
          <path id="Path_73" data-name="Path 73" d="M51.263,48.362,45.68,51.607l-9.531-5.5,5.584-3.244Z" transform="translate(-36.149 -42.86)" fill="#2e4277"/>
        </g>
        <g id="Group_69" data-name="Group 69" transform="translate(204.901 101.96)">
          <path id="Path_74" data-name="Path 74" d="M54.306,48.749l-9.622,5.592-9.531-5.5,9.624-5.593Z" transform="translate(-35.153 -43.246)" fill="#2e4277"/>
        </g>
        <g id="Group_70" data-name="Group 70" transform="translate(192.783 109.019)">
          <path id="Path_75" data-name="Path 75" d="M53.286,49.327l-9.6,5.577-9.53-5.5,9.6-5.576Z" transform="translate(-34.159 -43.825)" fill="#2e4277"/>
        </g>
        <g id="Group_71" data-name="Group 71" transform="translate(180.639 116.06)">
          <path id="Path_76" data-name="Path 76" d="M52.316,49.906,42.692,55.5,33.162,50,42.785,44.4Z" transform="translate(-33.162 -44.403)" fill="#2e4277"/>
        </g>
        <g id="Group_72" data-name="Group 72" transform="translate(155.726 115.747)">
          <path id="Path_77" data-name="Path 77" d="M63.04,57.251l-9.622,5.592-22.3-12.874,9.622-5.592Z" transform="translate(-31.119 -44.377)" fill="#2e4277"/>
        </g>
        <g id="Group_73" data-name="Group 73" transform="translate(229.814 104.621)">
          <path id="Path_78" data-name="Path 78" d="M52.258,48.937l-5.583,3.245L37.2,46.71l5.584-3.245Z" transform="translate(-37.196 -43.464)" fill="#2e4277"/>
        </g>
        <g id="Group_74" data-name="Group 74" transform="translate(242.581 111.993)">
          <path id="Path_79" data-name="Path 79" d="M53.305,49.542l-5.583,3.245-9.479-5.473,5.584-3.245Z" transform="translate(-38.243 -44.069)" fill="#2e4277"/>
        </g>
        <g id="Group_75" data-name="Group 75" transform="translate(89.399 63.384)">
          <path id="Path_80" data-name="Path 80" d="M44.832,45.584l-9.624,5.592-9.53-5.5L35.3,40.082Z" transform="translate(-25.678 -40.082)" fill="#2e4277"/>
        </g>
        <g id="Group_76" data-name="Group 76" transform="translate(101.52 70.381)">
          <path id="Path_81" data-name="Path 81" d="M45.826,46.157,36.2,51.751l-9.53-5.5,9.622-5.592Z" transform="translate(-26.673 -40.656)" fill="#2e4277"/>
        </g>
        <g id="Group_77" data-name="Group 77" transform="translate(0 25.838)">
          <path id="Path_82" data-name="Path 82" d="M37.5,42.5,27.876,48.1l-9.531-5.5L27.969,37Z" transform="translate(-18.345 -37.002)" fill="#2e4277"/>
        </g>
        <g id="Group_78" data-name="Group 78" transform="translate(12.768 33.21)">
          <path id="Path_83" data-name="Path 83" d="M38.546,43.11,28.923,48.7l-9.531-5.5,9.624-5.592Z" transform="translate(-19.392 -37.607)" fill="#2e4277"/>
        </g>
        <g id="Group_79" data-name="Group 79" transform="translate(25.535 40.582)">
          <path id="Path_84" data-name="Path 84" d="M39.594,43.713l-9.624,5.592L20.44,43.8l9.624-5.592Z" transform="translate(-20.44 -38.211)" fill="#2e4277"/>
        </g>
        <g id="Group_80" data-name="Group 80" transform="translate(38.303 47.952)">
          <path id="Path_85" data-name="Path 85" d="M79.488,66.747,69.866,72.34,21.487,44.409l9.624-5.593Z" transform="translate(-21.487 -38.816)" fill="#2e4277"/>
        </g>
        <g id="Group_81" data-name="Group 81" transform="translate(89.375 77.439)">
          <path id="Path_86" data-name="Path 86" d="M44.83,46.738,35.206,52.33l-9.53-5.5L35.3,41.235Z" transform="translate(-25.676 -41.235)" fill="#2e4277"/>
        </g>
        <g id="Group_82" data-name="Group 82" transform="translate(102.143 84.811)">
          <path id="Path_87" data-name="Path 87" d="M45.877,47.341l-9.622,5.592-9.531-5.5,9.622-5.592Z" transform="translate(-26.724 -41.839)" fill="#2e4277"/>
        </g>
        <g id="Group_83" data-name="Group 83" transform="translate(114.91 92.181)">
          <path id="Path_88" data-name="Path 88" d="M46.924,47.947,37.3,53.539l-9.531-5.5,9.622-5.592Z" transform="translate(-27.771 -42.444)" fill="#2e4277"/>
        </g>
        <g id="Group_84" data-name="Group 84" transform="translate(127.678 99.553)">
          <path id="Path_89" data-name="Path 89" d="M47.972,48.55l-9.622,5.593-9.531-5.5,9.624-5.592Z" transform="translate(-28.818 -43.049)" fill="#2e4277"/>
        </g>
        <g id="Group_85" data-name="Group 85" transform="translate(217.669 109.332)">
          <path id="Path_90" data-name="Path 90" d="M55.3,49.323,45.68,54.915,36.2,49.443l9.624-5.592Z" transform="translate(-36.2 -43.851)" fill="#2e4277"/>
        </g>
        <g id="Group_86" data-name="Group 86" transform="translate(205.551 116.389)">
          <path id="Path_91" data-name="Path 91" d="M54.281,49.9l-9.6,5.577-9.479-5.473,9.6-5.577Z" transform="translate(-35.206 -44.43)" fill="#2e4277"/>
        </g>
        <g id="Group_87" data-name="Group 87" transform="translate(193.406 123.432)">
          <path id="Path_92" data-name="Path 92" d="M53.312,50.48l-9.624,5.592L34.21,50.6l9.622-5.592Z" transform="translate(-34.21 -45.007)" fill="#2e4277"/>
        </g>
        <g id="Group_88" data-name="Group 88" transform="translate(181.262 130.489)">
          <path id="Path_93" data-name="Path 93" d="M52.316,51.059l-9.624,5.592-9.479-5.473,9.622-5.592Z" transform="translate(-33.214 -45.586)" fill="#2e4277"/>
        </g>
        <g id="Group_89" data-name="Group 89" transform="translate(230.437 116.704)">
          <path id="Path_94" data-name="Path 94" d="M56.349,49.928,46.727,55.52l-9.48-5.473,9.624-5.592Z" transform="translate(-37.247 -44.455)" fill="#2e4277"/>
        </g>
        <g id="Group_90" data-name="Group 90" transform="translate(218.319 123.761)">
          <path id="Path_95" data-name="Path 95" d="M55.329,50.507l-9.6,5.577-9.479-5.473,9.6-5.577Z" transform="translate(-36.253 -45.034)" fill="#2e4277"/>
        </g>
        <g id="Group_91" data-name="Group 91" transform="translate(194.029 130.804)">
          <path id="Path_96" data-name="Path 96" d="M65.508,51.085,43.739,63.734l-9.479-5.473L56.028,45.612Z" transform="translate(-34.261 -45.612)" fill="#2e4277"/>
        </g>
      </g>
    </g>
    <g id="Group_94" data-name="Group 94" transform="translate(228.61 165.401)">
      <path id="Path_97" data-name="Path 97" d="M258.728,152.809c0-5.982-4.141-13.344-9.387-16.381l-209-120.651c-2.669-1.564-5.062-1.656-6.81-.736l-9.018,5.338c1.747-1.012,4.048-.92,6.81.645L240.23,141.673c5.246,3.037,9.479,10.4,9.479,16.382l-.4,133.594,9.019-5.207Z" transform="translate(-24.513 -14.451)" fill="#384e85"/>
      <path id="Path_98" data-name="Path 98" d="M45.539,41.968l-.057,19.174c0,3.037-1.012,5.154-2.761,6.166l9.11-5.338c1.657-.92,2.669-3.037,2.669-6.074l.057-19.136Z" transform="translate(179.255 235.23)" fill="#3955d1"/>
    </g>
    <g id="Group_95" data-name="Group 95" transform="translate(323.158 378.164)">
      <path id="Path_99" data-name="Path 99" d="M38.5,32.762a13.724,13.724,0,0,1,6.252,10.764c-.011,3.961-2.846,5.576-6.293,3.586a13.722,13.722,0,0,1-6.2-10.8C32.28,32.355,35.058,30.773,38.5,32.762Z" transform="translate(-32.268 -31.903)" fill="#4466fb"/>
    </g>
    <g id="Group_147" data-name="Group 147" transform="translate(75.712 0.963)">
      <g id="Group_140" data-name="Group 140" transform="translate(0 40.442)">
        <g id="Group_139" data-name="Group 139">
          <g id="Group_100" data-name="Group 100" transform="translate(0 292.245)">
            <g id="Group_99" data-name="Group 99">
              <g id="Group_96" data-name="Group 96" transform="translate(49.651 28.666)">
                <path id="Path_100" data-name="Path 100" d="M65.359,30.6l-.033,14.331L16.044,73.574l.032-14.331Z" transform="translate(-16.044 -30.603)" fill="#aabafd"/>
              </g>
              <g id="Group_97" data-name="Group 97" transform="translate(0 28.64)">
                <path id="Path_101" data-name="Path 101" d="M61.653,59.267,61.621,73.6,11.971,44.932,12,30.6Z" transform="translate(-11.971 -30.601)" fill="#b7c5fd"/>
              </g>
              <g id="Group_98" data-name="Group 98" transform="translate(0.033)">
                <path id="Path_102" data-name="Path 102" d="M110.906,56.918,61.623,85.559,11.974,56.892l49.282-28.64Z" transform="translate(-11.974 -28.252)" fill="#d9ddf6"/>
              </g>
            </g>
          </g>
          <g id="Group_138" data-name="Group 138" transform="translate(25.054)">
            <path id="Path_103" data-name="Path 103" d="M33.521,180.156l.733.9,4.357-2.4L20.931,157.015l11.761-1.489.45-.251.741.9,4.347-2.4-17.744-21.74,12.285-1.556.45-.251.733.9,4.357-2.4L20.557,107l12.285-1.556.45-.251.741.9,4.347-2.4L20.636,81.952,32.922,80.4l.449-.251.733.9,4.357-2.4L20.707,56.909l12.285-1.556.45-.251.741.9,4.349-2.4L20.786,31.866,33.071,30.31l.45-.251.733.9,4.357-2.4L19.657,5.359,15.31,7.751,32.3,28.562,18.819,30.268l-4.349,2.4,3.1-.393-1.905,1.046L32.225,53.605,18.749,55.311l-4.357,2.4,3.1-.393-1.9,1.046L32.145,78.648,18.669,80.354l-4.349,2.4,3.1-.394-1.905,1.046,16.563,20.284L18.6,105.4l-4.357,2.4,3.1-.393-1.9,1.045L32,128.734l-13.476,1.707-4.349,2.4,3.1-.393-1.905,1.045,16.563,20.285-13.043,1.656-4.349,2.392,1.058-.134-.282.156L32.3,178.659l-13.476,1.706-4.349,2.4,3.1-.393-1.905,1.046L32.225,203.7l-13.476,1.706-4.357,2.4,3.1-.394-1.9,1.046,16.554,20.283-13.476,1.707-4.349,2.4,3.1-.394L15.512,233.5l16.563,20.283L18.6,255.494l-4.357,2.4,3.1-.393-1.9,1.045L32,278.832l-13.476,1.706-4.349,2.4,3.1-.393-1.905,1.046,16.563,20.284L18.882,305.53l-4.349,2.393,18.159-2.3.45-.251.741.9,4.347-2.4L20.486,282.135l12.285-1.556.45-.251.733.9,4.357-2.4L20.557,257.093l12.285-1.557.45-.251.741.9,4.347-2.4L20.636,232.049l12.286-1.556.449-.251.733.9,4.357-2.4L20.707,207.006l12.285-1.556.45-.251.741.9,4.349-2.4L20.786,181.963l12.285-1.556Z" transform="translate(-12.404 7.794)" fill="#384e85"/>
            <path id="Path_104" data-name="Path 104" d="M40.33,282.94l-3.1-.394,1.91,1.046L22.569,303.878l13.044,1.654,4.352,2.389-18.159-2.3-.454-.251-.74.9-4.352-2.4,17.75-21.744-12.283-1.557-.454-.251-.728.9-4.363-2.4L33.945,257.1l-12.293-1.558-.443-.25-.74.9-4.352-2.406,17.739-21.734L21.574,230.5l-.452-.251-.729.9-4.352-2.4,17.75-21.743-12.282-1.557-.454-.251-.74.9-4.352-2.4,17.751-21.743L21.43,180.406l-.452-.25-.729.9-4.363-2.4L33.57,157.016l-11.763-1.485-.454-.251-.74.9-4.352-2.406,17.75-21.734-12.283-1.557-.454-.251-.728.9-4.363-2.4L33.945,107l-12.293-1.557-.443-.25-.74.9-4.352-2.4L33.856,81.952,21.574,80.4l-.452-.25-.729.9-4.352-2.4,17.75-21.743L21.508,55.359l-.454-.251-.74.895-4.352-2.4L33.714,31.871,21.43,30.314l-.452-.251-.729.9L15.886,28.56,34.84,5.359l4.352,2.4L22.2,28.56,35.679,30.27l4.341,2.4-3.093-.394,1.912,1.047L22.27,53.606l13.476,1.709,4.363,2.4-3.1-.394,1.9,1.047L22.347,78.651,35.823,80.36l4.352,2.4-3.093-.394,1.9,1.047L22.425,103.7,35.9,105.4l4.351,2.408-3.093-.394,1.9,1.046L22.5,128.741l13.476,1.7,4.352,2.407-3.1-.394,1.91,1.039L22.569,153.777l13.044,1.656,4.352,2.4-1.05-.134.277.152L22.2,178.661l13.475,1.709,4.341,2.4-3.093-.394,1.912,1.046L22.27,203.705l13.476,1.7,4.363,2.408-3.1-.395,1.9,1.047L22.347,228.751l13.476,1.7,4.352,2.407-3.093-.394,1.9,1.039L22.425,253.788,35.9,255.5l4.351,2.4-3.093-.394,1.9,1.047L22.5,278.833l13.476,1.709Z" transform="translate(6.785 7.792)" fill="#384e85"/>
            <g id="Group_109" data-name="Group 109" transform="translate(1.762 15.548)">
              <g id="Group_104" data-name="Group 104">
                <g id="Group_103" data-name="Group 103">
                  <g id="Group_102" data-name="Group 102">
                    <g id="Group_101" data-name="Group 101">
                      <path id="Path_105" data-name="Path 105" d="M34.263,178.858l-18.59,2.361L34.185,203.9l-18.59,2.361,18.513,22.674-18.59,2.371L34.03,253.984l-18.589,2.371L33.964,279.03l-18.59,2.361,18.513,22.683L14.854,306.49l-.319-.761,18.159-2.308L14.171,280.739l18.6-2.363L14.247,255.693l18.6-2.354L14.325,230.657l18.6-2.361L14.4,205.613l18.59-2.363L14.479,180.567l18.59-2.363-17.838-21.86-.377.045-.319-.761,18.159-2.3L14.171,130.646l18.6-2.361L14.247,105.6l18.6-2.363L14.325,80.557l18.6-2.363L14.4,55.511l18.59-2.362L14.479,30.475l18.59-2.362L14.987,5.958l.321-.4,18.955,23.2-18.59,2.371L34.185,53.8l-18.59,2.362L34.108,78.847,15.518,81.21,34.03,103.893l-18.589,2.361,18.523,22.674L15.374,131.3l18.513,22.674-18.082,2.291Z" transform="translate(-14.171 -5.555)" fill="#1b2a4f"/>
                    </g>
                  </g>
                </g>
              </g>
              <g id="Group_108" data-name="Group 108" transform="translate(25.261)">
                <g id="Group_107" data-name="Group 107">
                  <g id="Group_106" data-name="Group 106">
                    <g id="Group_105" data-name="Group 105">
                      <path id="Path_106" data-name="Path 106" d="M36.335,280.739,17.812,303.421l18.159,2.308-.321.761-19.031-2.416,18.523-22.683-18.6-2.361,18.524-22.674-18.59-2.371L34.986,231.31,16.4,228.939,34.91,206.265,16.319,203.9l18.513-22.684-18.59-2.361L34.7,156.264l-18.082-2.291L35.141,131.3l-18.6-2.371,18.524-22.674-18.59-2.361L34.986,81.21,16.4,78.847,34.91,56.165,16.319,53.8,34.833,31.128l-18.59-2.371L35.2,5.555l.33.4L17.435,28.113l18.6,2.362L17.513,53.149,36.1,55.511,17.59,78.194l18.59,2.363L17.657,103.239l18.6,2.363L17.734,128.285l18.6,2.361L17.812,153.33l18.159,2.3-.321.761-.365-.045L17.435,178.2l18.6,2.363L17.513,203.25l18.59,2.363L17.59,228.3l18.59,2.361L17.657,253.339l18.6,2.354L17.734,278.376Z" transform="translate(-16.243 -5.555)" fill="#1b2a4f"/>
                    </g>
                  </g>
                </g>
              </g>
            </g>
            <g id="Group_121" data-name="Group 121" transform="translate(0 150.097)">
              <g id="Group_120" data-name="Group 120">
                <g id="Group_112" data-name="Group 112" transform="translate(20.916 9.842)">
                  <g id="Group_111" data-name="Group 111">
                    <g id="Group_110" data-name="Group 110">
                      <path id="Path_107" data-name="Path 107" d="M15.742,19.057,19.264,17.4,22.8,19.051,19.275,20.71Z" transform="translate(-15.742 -17.399)" fill="#384e85"/>
                    </g>
                  </g>
                </g>
                <g id="Group_116" data-name="Group 116" transform="translate(41.792)">
                  <g id="Group_115" data-name="Group 115">
                    <g id="Group_113" data-name="Group 113" transform="translate(0.029)">
                      <path id="Path_108" data-name="Path 108" d="M17.457,18.25l3.523-1.658,3.533,1.652L20.989,19.9Z" transform="translate(-17.457 -16.592)" fill="#384e85"/>
                    </g>
                    <g id="Group_114" data-name="Group 114" transform="translate(0 17.152)">
                      <path id="Path_109" data-name="Path 109" d="M21.013,19.646V174.257l-3.559-1.646V18Z" transform="translate(-17.454 -17.999)" fill="#2e4277"/>
                    </g>
                  </g>
                </g>
                <g id="Group_119" data-name="Group 119">
                  <g id="Group_118" data-name="Group 118">
                    <g id="Group_117" data-name="Group 117">
                      <path id="Path_110" data-name="Path 110" d="M21.082,18.25l-3.523-1.658-3.533,1.652L17.549,19.9Z" transform="translate(-14.026 -16.592)" fill="#384e85"/>
                    </g>
                  </g>
                </g>
              </g>
            </g>
            <g id="Group_137" data-name="Group 137">
              <g id="Group_126" data-name="Group 126" transform="translate(20.871 9.842)">
                <g id="Group_125" data-name="Group 125">
                  <g id="Group_122" data-name="Group 122" transform="translate(3.557 1.65)">
                    <path id="Path_111" data-name="Path 111" d="M19.587,5.223V327.948l-3.557,1.715V6.869Z" transform="translate(-16.03 -5.223)" fill="#1b2a4f"/>
                  </g>
                  <g id="Group_123" data-name="Group 123" transform="translate(0.045)">
                    <path id="Path_112" data-name="Path 112" d="M15.742,6.746l3.522-1.658L22.8,6.74,19.275,8.4Z" transform="translate(-15.742 -5.087)" fill="#384e85"/>
                  </g>
                  <g id="Group_124" data-name="Group 124" transform="translate(0 1.65)">
                    <path id="Path_113" data-name="Path 113" d="M19.3,6.869V329.663l-3.557-1.715L15.823,5.223Z" transform="translate(-15.738 -5.223)" fill="#2e4277"/>
                  </g>
                </g>
              </g>
              <g id="Group_131" data-name="Group 131" transform="translate(41.792)">
                <g id="Group_130" data-name="Group 130">
                  <g id="Group_127" data-name="Group 127" transform="translate(3.559 1.68)">
                    <path id="Path_114" data-name="Path 114" d="M21.3,4.418V324.6l-3.557,1.646V6.064Z" transform="translate(-17.746 -4.418)" fill="#1b2a4f"/>
                  </g>
                  <g id="Group_128" data-name="Group 128" transform="translate(0.029)">
                    <path id="Path_115" data-name="Path 115" d="M17.457,5.939,20.98,4.28l3.533,1.652L20.989,7.591Z" transform="translate(-17.457 -4.28)" fill="#384e85"/>
                  </g>
                  <g id="Group_129" data-name="Group 129" transform="translate(0 1.68)">
                    <path id="Path_116" data-name="Path 116" d="M21.013,6.064V171.633l-3.559-1.647V4.418Z" transform="translate(-17.454 -4.418)" fill="#2e4277"/>
                  </g>
                </g>
              </g>
              <g id="Group_136" data-name="Group 136">
                <g id="Group_135" data-name="Group 135">
                  <g id="Group_132" data-name="Group 132" transform="translate(0.034 1.68)">
                    <path id="Path_117" data-name="Path 117" d="M17.5,6.064v320.18L14.029,324.6V4.418Z" transform="translate(-14.029 -4.418)" fill="#1b2a4f"/>
                  </g>
                  <g id="Group_133" data-name="Group 133">
                    <path id="Path_118" data-name="Path 118" d="M21.082,5.939,17.559,4.28,14.026,5.932l3.523,1.659Z" transform="translate(-14.026 -4.28)" fill="#384e85"/>
                  </g>
                  <g id="Group_134" data-name="Group 134" transform="translate(3.507 1.68)">
                    <path id="Path_119" data-name="Path 119" d="M17.871,4.418V324.6l-3.557,1.646V6.064Z" transform="translate(-14.314 -4.418)" fill="#2e4277"/>
                  </g>
                </g>
              </g>
            </g>
          </g>
        </g>
      </g>
      <g id="Group_146" data-name="Group 146" transform="translate(19.305)">
        <g id="Group_145" data-name="Group 145">
          <g id="Group_144" data-name="Group 144">
            <g id="Group_141" data-name="Group 141" transform="translate(30.28 17.482)">
              <path id="Path_120" data-name="Path 120" d="M46.114,2.4l-.02,26.924L16.038,46.787l.02-26.924Z" transform="translate(-16.038 -2.397)" fill="#aabafd"/>
            </g>
            <g id="Group_142" data-name="Group 142" transform="translate(0 17.466)">
              <path id="Path_121" data-name="Path 121" d="M43.854,19.877,43.835,46.8,13.554,29.32,13.575,2.4Z" transform="translate(-13.554 -2.395)" fill="#b7c5fd"/>
            </g>
            <g id="Group_143" data-name="Group 143" transform="translate(0.021)">
              <path id="Path_122" data-name="Path 122" d="M73.891,18.445,43.835,35.911,13.556,18.429,43.611.963Z" transform="translate(-13.556 -0.963)" fill="#d9ddf6"/>
            </g>
          </g>
        </g>
      </g>
    </g>
    <g id="Group_162" data-name="Group 162" transform="translate(277.275 145.761)">
      <g id="Group_153" data-name="Group 153" transform="translate(45.517)">
        <g id="Group_150" data-name="Group 150">
          <g id="Group_149" data-name="Group 149">
            <g id="Group_148" data-name="Group 148">
              <path id="Path_123" data-name="Path 123" d="M32.78,16.041l4.312,2.506a8.56,8.56,0,0,1,6.993.447l-4.312-2.506A8.555,8.555,0,0,0,32.78,16.041Z" transform="translate(-26.174 17.111)" fill="#384e85"/>
              <path id="Path_124" data-name="Path 124" d="M36.654,59.311l-.1-40.2,6.523-3.767L38.762,12.84l-6.523,3.766.1,40.2Z" transform="translate(-32.238 -12.84)" fill="#384e85"/>
            </g>
          </g>
        </g>
        <g id="Group_151" data-name="Group 151" transform="translate(7.442 41.533)">
          <path id="Path_125" data-name="Path 125" d="M41.02,23.8c-.007-2.481-.887-4.226-2.3-5.048l-4.312-2.506c1.416.823,2.3,2.567,2.3,5.048.009,3.278-1.588,6.958-3.859,9.871a16.3,16.3,0,0,1,3.328,3.823C39.024,31.968,41.029,27.567,41.02,23.8Z" transform="translate(-32.849 -16.247)" fill="#d9ddf6"/>
        </g>
        <g id="Group_152" data-name="Group 152" transform="translate(4.312 2.505)">
          <path id="Path_126" data-name="Path 126" d="M50.4,55.873c-.022-7.832-4.806-11.678-11.2-9.674l-.083-33.153-6.523,3.766.1,40.2,3.261-1.883c4.355-2.514,7.921-.5,7.936,4.5.011,3.766-1.995,8.167-4.843,11.189a16.376,16.376,0,0,1,2.189,5.768C46.6,71.074,50.416,62.89,50.4,55.873Z" transform="translate(-32.592 -13.046)" fill="#1b2a4f"/>
        </g>
      </g>
      <g id="Group_161" data-name="Group 161" transform="translate(0 17.045)">
        <g id="Group_160" data-name="Group 160">
          <g id="Group_154" data-name="Group 154" transform="translate(3.568)">
            <path id="Path_127" data-name="Path 127" d="M50.784,35.66l-5.692,3.334c-1.382.814-3.334.651-5.448-.569C35.415,35.985,32,30.049,32.08,25.169c0-2.358.814-3.985,2.2-4.8l5.692-3.334c-1.382.814-2.2,2.44-2.2,4.8A16.9,16.9,0,0,0,45.417,35.09C47.531,36.311,49.4,36.473,50.784,35.66Z" transform="translate(7.928 17.09)" fill="#d9ddf6"/>
            <path id="Path_128" data-name="Path 128" d="M133.128,81.3l-.163,72.047c-.081,3.659-1.3,6.262-3.415,7.4l-5.692,3.334c2.033-1.139,3.334-3.741,3.334-7.4l.244-72.047c0-7.318-5.123-16.263-11.547-20L37.01,19.091c-3.172-1.789-6.1-1.952-8.213-.732l5.774-3.334c2.114-1.22,4.96-1.057,8.132.732L121.581,61.3C128.005,65.036,133.128,73.98,133.128,81.3Z" transform="translate(-28.797 -14.238)" fill="#d9ddf6"/>
          </g>
          <g id="Group_155" data-name="Group 155" transform="translate(0 3.321)">
            <path id="Path_129" data-name="Path 129" d="M119.137,61.608c6.438,3.717,11.56,12.65,11.539,19.988l-.2,72.007c-.021,7.4-5.177,10.337-11.615,6.62L39.994,114.692c-6.334-3.657-11.51-12.562-11.489-19.96l.2-72.007c.021-7.338,5.23-10.307,11.565-6.649ZM79.651,66.717c4.258,2.458,7.644.41,7.658-4.421A16.6,16.6,0,0,0,79.7,49.178c-4.2-2.428-7.642-.528-7.656,4.305s3.4,10.806,7.606,13.234" transform="translate(-28.505 -14.511)" fill="#b7c5fd"/>
          </g>
          <g id="Group_159" data-name="Group 159" transform="translate(15.265 68.728)">
            <g id="Group_156" data-name="Group 156">
              <path id="Path_130" data-name="Path 130" d="M47.311,19.876l-.021,7.338-11.575.724L47.247,42.171l-.021,7.4L29.757,28.033l.02-6.834Z" transform="translate(-29.757 -19.876)" fill="#384e85"/>
            </g>
            <g id="Group_157" data-name="Group 157" transform="translate(44.868 15.818)">
              <path id="Path_131" data-name="Path 131" d="M33.521,21.173,50.99,42.706l-.018,6.834L33.437,50.863l.021-7.394,11.575-.892L33.5,28.512Z" transform="translate(-33.437 -21.173)" fill="#384e85"/>
            </g>
            <g id="Group_158" data-name="Group 158" transform="translate(20.518 2.432)">
              <path id="Path_132" data-name="Path 132" d="M52.825,23.622l-15.242,37.1L31.44,57.173l15.242-37.1Z" transform="translate(-31.44 -20.075)" fill="#384e85"/>
            </g>
          </g>
        </g>
      </g>
      <path id="Path_133" data-name="Path 133" d="M48.94,17.471a14.746,14.746,0,0,1-4.025,3.784,7.27,7.27,0,0,1-3.264,1.036l.157-.159L37.5,19.626l-6.086,6.166a7.794,7.794,0,0,0,3.253,3.916l4.312,2.506A7.794,7.794,0,0,1,35.723,28.3l5.386-5.458L43.6,24.287c1.468.853,3.492.709,5.631-.526a13.589,13.589,0,0,0,3.041-2.467A16.275,16.275,0,0,0,48.94,17.471Z" transform="translate(4.018 38.982)" fill="#384e85"/>
      <path id="Path_134" data-name="Path 134" d="M45.269,20.252c-3.262,1.883-6.256,1.229-7.419-1.629l-6.086,6.166c2.128,5.2,7.55,6.386,13.526,2.936A24.537,24.537,0,0,0,50.5,23.553a16.376,16.376,0,0,0-2.189-5.768A13.658,13.658,0,0,1,45.269,20.252Z" transform="translate(7.977 42.492)" fill="#1b2a4f"/>
    </g>
    <g id="Group_166" data-name="Group 166" transform="translate(133.595 30.055)">
      <g id="Group_163" data-name="Group 163" transform="translate(208.327 120.277)">
        <path id="Path_135" data-name="Path 135" d="M33.846,21.264,47.7,13.215,47.656,27,33.807,35.05Z" transform="translate(-33.807 -13.215)" fill="#1b2a4f"/>
      </g>
      <g id="Group_164" data-name="Group 164" transform="translate(0.04)">
        <path id="Path_136" data-name="Path 136" d="M16.722,11.4,30.571,3.349,238.9,123.626l-13.85,8.049Z" transform="translate(-16.722 -3.349)" fill="#384e85"/>
      </g>
      <g id="Group_165" data-name="Group 165" transform="translate(0 8.049)">
        <path id="Path_137" data-name="Path 137" d="M225.085,124.286l-.039,13.787L16.719,17.8l.04-13.786Z" transform="translate(-16.719 -4.009)" fill="#2e4277"/>
      </g>
    </g>
    <g id="Group_170" data-name="Group 170" transform="translate(266.417 286.284)">
      <g id="Group_167" data-name="Group 167" transform="translate(106.313 61.381)">
        <path id="Path_138" data-name="Path 138" d="M64.872,44.254a7.96,7.96,0,0,1,3.611,6.255L68.4,79.092c-.006,2.3-1.634,3.227-3.635,2.072L39.892,66.8a7.847,7.847,0,0,1-3.557-6.224l.081-28.583c.006-2.3,1.58-3.258,3.581-2.1Z" transform="translate(-36.334 -29.402)" fill="#4466fb"/>
      </g>
      <g id="Group_168" data-name="Group 168" transform="translate(53.157 30.704)">
        <path id="Path_139" data-name="Path 139" d="M60.511,41.724a7.96,7.96,0,0,1,3.612,6.255l-.081,28.583c-.007,2.3-1.634,3.227-3.635,2.071L35.532,64.272a7.945,7.945,0,0,1-3.558-6.224l.081-28.583c.007-2.3,1.634-3.226,3.581-2.1Z" transform="translate(-31.974 -26.885)" fill="#384e85"/>
      </g>
      <g id="Group_169" data-name="Group 169">
        <path id="Path_140" data-name="Path 140" d="M56.151,39.219a7.96,7.96,0,0,1,3.611,6.255l-.081,28.583c-.006,2.3-1.634,3.226-3.635,2.071L31.171,61.767a7.847,7.847,0,0,1-3.557-6.224L27.7,26.96c.006-2.3,1.58-3.258,3.581-2.1Z" transform="translate(-27.614 -24.367)" fill="#9aadfd"/>
      </g>
    </g>
    <g id="Group_182" data-name="Group 182" transform="translate(6.275 459.732)">
      <g id="Group_174" data-name="Group 174">
        <g id="Group_173" data-name="Group 173">
          <g id="Group_171" data-name="Group 171" transform="translate(0 33.639)">
            <path id="Path_141" data-name="Path 141" d="M122.679,41.453V57.6c0,1.486-.991,2.873-2.873,4.062L71.659,89.6a15.948,15.948,0,0,1-14.067,0L9.247,61.663C7.266,60.474,6.275,58.988,6.275,57.5l.1-16.148c0,1.486.991,2.972,2.873,4.161L57.691,73.353a15.429,15.429,0,0,0,13.968.1l48.147-28.036C121.787,44.326,122.679,42.939,122.679,41.453Z" transform="translate(-6.275 -41.354)" fill="#b7c5fd"/>
          </g>
          <g id="Group_172" data-name="Group 172" transform="translate(0.079)">
            <path id="Path_142" data-name="Path 142" d="M119.662,68.2c3.922,2.264,3.942,5.916.109,8.144L71.636,104.318a15.512,15.512,0,0,1-14.059-.036L9.189,76.345c-3.858-2.228-3.879-5.88-.046-8.107L57.279,40.265a15.491,15.491,0,0,1,14,0Z" transform="translate(-6.282 -38.594)" fill="#d9ddf6"/>
          </g>
        </g>
      </g>
      <g id="Group_181" data-name="Group 181" transform="translate(36.473 14.634)">
        <g id="Group_178" data-name="Group 178" transform="translate(4.724)">
          <g id="Group_175" data-name="Group 175" transform="translate(2.425)">
            <path id="Path_143" data-name="Path 143" d="M42.386,47c7.7,4.446,12.492,10.585,12.534,17.354,0,.8-1.159,1.475-2.537,1.475a3.775,3.775,0,0,1-1.85-.438,1.231,1.231,0,0,1-.734-1.054c-.052-5.94-4.265-11.327-11.028-15.232s-16.077-6.327-26.332-6.338a3.621,3.621,0,0,1-1.821-.421,1.311,1.311,0,0,1-.764-1.072c0-.8,1.151-1.47,2.537-1.475C24.074,39.8,34.685,42.549,42.386,47Z" transform="translate(-9.853 -39.795)"/>
          </g>
          <g id="Group_176" data-name="Group 176" transform="translate(1.228 6.667)">
            <path id="Path_144" data-name="Path 144" d="M35.04,45.787c5.826,3.364,9.446,8.01,9.475,13.141,0,.834-1.121,1.488-2.568,1.492a3.685,3.685,0,0,1-1.8-.439,1.293,1.293,0,0,1-.759-1.035c-.024-4.31-3.077-8.22-7.979-11.05s-11.653-4.58-19.074-4.569a3.766,3.766,0,0,1-1.851-.439,1.24,1.24,0,0,1-.733-1.053c0-.843,1.12-1.5,2.568-1.493C21.18,40.342,29.214,42.423,35.04,45.787Z" transform="translate(-9.755 -40.342)"/>
          </g>
          <g id="Group_177" data-name="Group 177" transform="translate(0 13.333)">
            <path id="Path_145" data-name="Path 145" d="M27.7,44.584c4.15,2.4,6.418,5.6,6.438,8.957,0,.8-1.151,1.47-2.568,1.492a3.793,3.793,0,0,1-1.808-.447,1.359,1.359,0,0,1-.777-1.046c-.015-2.585-1.97-5-5.037-6.773a23.919,23.919,0,0,0-11.709-2.9,3.969,3.969,0,0,1-1.783-.443,1.44,1.44,0,0,1-.8-1.049c.033-.821,1.189-1.492,2.568-1.492A31.652,31.652,0,0,1,27.7,44.584Z" transform="translate(-9.654 -40.888)"/>
          </g>
        </g>
        <g id="Group_180" data-name="Group 180" transform="translate(0 21.376)">
          <g id="Group_179" data-name="Group 179">
            <path id="Path_146" data-name="Path 146" d="M22.309,42.853c2.987,1.725,3.033,4.525.035,6.267a11.958,11.958,0,0,1-10.819,0c-3.018-1.742-3-4.538-.028-6.263A11.834,11.834,0,0,1,22.309,42.853Z" transform="translate(-9.267 -41.548)"/>
          </g>
        </g>
      </g>
    </g>
    <g id="Group_187" data-name="Group 187" transform="translate(147.451 503.526)">
      <g id="Group_186" data-name="Group 186">
        <g id="Group_185" data-name="Group 185">
          <g id="Group_183" data-name="Group 183" transform="translate(0 33.639)">
            <path id="Path_147" data-name="Path 147" d="M134.259,45.045V61.193c0,1.486-.991,2.873-2.873,4.062L83.24,93.192a15.948,15.948,0,0,1-14.067,0L20.827,65.255c-1.981-1.189-2.972-2.675-2.972-4.161l.1-16.148c0,1.486.991,2.973,2.873,4.161L69.271,76.945a15.428,15.428,0,0,0,13.968.1l48.146-28.036C133.368,47.919,134.259,46.531,134.259,45.045Z" transform="translate(-17.855 -44.946)" fill="#4e4f50"/>
          </g>
          <g id="Group_184" data-name="Group 184" transform="translate(0.08)">
            <path id="Path_148" data-name="Path 148" d="M131.242,71.794c3.922,2.264,3.942,5.916.109,8.144L83.216,107.91a15.511,15.511,0,0,1-14.059-.036L20.769,79.938c-3.858-2.228-3.879-5.88-.046-8.107L68.859,43.857a15.492,15.492,0,0,1,14,0Z" transform="translate(-17.862 -42.186)" fill="#919191"/>
          </g>
        </g>
      </g>
    </g>
  </g>
</svg>
